<svg width="150" height="44" viewBox="0 0 150 44" fill="none" xmlns="http://www.w3.org/2000/svg">
  <path d="M72.8594 5.4725V5.91089L71.5444 7.07501L70.8944 7.05366L70.4007 7.31637L70.535 7.84342V8.21614L69.3896 8.76618L69.1898 9.53459V10.9828L70.0883 12.0352L69.9757 12.4753L69.0319 12.848V13.4391L68.3534 13.797L67.9066 14.0318H67.166L65.9987 15.1959L66.1784 15.3716L66.3817 16.6884L65.6175 18.4026L65.3269 18.3582L65.2598 17.8739L64.5342 17.8345L65.033 18.6866L65.6175 19.3664L65.3706 20.3778L64.9658 21.0247H64.5695L64.6299 20.2891L64.2873 19.7604L63.7852 19.5026L63.7331 18.8393L63.891 18.0052L63.6458 17.8509L63.0831 18.4223L63.2864 18.8393L63.3317 19.7621L63.6911 19.9378L64.0724 20.6405L64.1546 21.0231L64.205 21.2546L64.0472 21.7603L64.6316 21.8046L65.0817 21.9984L64.9692 22.55L65.3504 22.7914L65.3286 23.0098L64.9457 23.3611L65.6192 23.8669V24.5253L65.1019 24.8323L65.4159 25.3807L65.1926 25.9307L63.4174 26.2148V26.8945L62.9018 27.8616L62.0704 28.039L61.9428 28.2508L61.4641 29.0471L61.4876 29.4871L60.4111 30.6053H59.9576L59.5982 31.3737L59.0137 31.6807L59.0037 31.8646L58.8576 34.1403L59.2841 34.6903L59.4655 35.4571L59.489 35.4785L59.9375 35.8528V36.4472L61.014 37.347L61.1265 38.3584L61.5296 39.0956L62.3173 40.5323V42.7095H60.6546C60.6546 42.7095 60.6563 42.6897 60.6546 42.6848C60.5908 42.5239 60.1827 42.1758 60.1827 42.1758L59.5562 42.2234V41.4764H59.1279L58.9482 41.1923V40.7753L58.5888 40.7523L57.8717 39.9395L57.9624 39.4782L57.603 39.5225L57.4216 39.1941L57.4451 39.0972L57.603 38.4257L57.4888 37.2846L57.1075 37.1532L55.9638 35.9234L54.9964 35.8561L53.8527 36.5145L53.4026 36.6245L52.7073 35.6164L50.8514 35.4818L50.5743 35.462L50.5458 35.4818L49.968 35.9004L49.654 35.5491L49.2559 35.8939L47.5882 35.9004V36.6032L47.2741 37.0202L48.1273 37.8773L47.6554 38.1614L46.51 37.6343L45.902 38.3387L44.8708 38.3354L44.5802 37.347L43.3895 37.0186V37.5243L43.1443 37.6786L41.5034 37.2616H40.8081L38.5845 38.227V38.6671L37.6876 39.2582L36.6984 39.4568L36.339 39.9839L35.8452 40.0282L35.5765 40.6423L35.2406 40.731L35.2625 42.0051C35.2003 42.2152 35.2087 42.4664 35.2457 42.7095C35.3313 43.2579 35.5765 43.7816 35.5765 43.7816L35.2843 44L34.0734 43.6486C33.2924 43.5009 32.8121 43.092 32.5232 42.7095C32.2108 42.2973 32.1185 41.9164 32.1185 41.9164C32.0295 41.322 31.8951 41.1037 31.8951 41.1037C31.1544 40.6866 30.5918 39.1498 30.5918 39.1498C30.5851 39.1301 30.5767 39.1137 30.5683 39.0972C30.0309 37.8379 29.2667 37.2189 29.2667 37.2189H28.5261L28.3027 36.9775L27.0447 36.9332V37.7903L26.2587 38.3814C25.0915 38.0973 24.2652 36.6787 24.2652 36.6787L24.3055 35.9021L21.746 32.8728L19.3645 32.6971L19.1646 33.5985L14.9189 33.0928L10.0467 30.2161V29.4477H6.62557L6.51472 28.2557L6.4677 27.7368L5.88324 27.5185V26.8601H5.34412L5.26183 26.3855L4.80669 26.2673L3.95183 25.2362L2.82993 25.1049L2.44869 24.7978L2.50075 24.6451L2.50243 24.6435L2.67206 24.1591L2.5377 23.9194L2.4235 23.6337L2.58137 23.238L1.86423 21.5041L1.66101 21.3268V21.0641L1.97507 20.7357V20.4073L1.45779 19.813L1.50314 18.5175L1.0312 18.0118L1.07655 17.3091L0.550871 16.5324L0.604615 15.4915L0.762486 14.8281L0 13.9891L0.428269 13.4177L1.21259 12.1666L1.12358 11.5525L1.34695 11.1568L1.43764 9.57728L2.87528 7.02903V6.45765L3.11544 6.11449L3.3237 5.82058L3.7738 4.41675V4.02269L4.17856 3.56131L3.93167 3.12128L3.96023 2.4054L4.33475 2.04911L3.97702 1.99985L3.99885 1.47444L3.77548 1.36443V1.0147L3.99885 0.423614H4.31292L4.51614 0.950668L5.25679 1.23636L6.04279 1.36771V1.89641L5.70689 2.35779L5.25679 2.51049L5.34748 3.21322H5.99744L6.44754 2.68617V2.06881L6.62725 1.85044L6.26784 1.38906L6.52648 0.949026L6.62725 0.709307L6.42403 0.510635L6.62557 0L9.40848 0.839018L12.8464 1.73879L14.0237 1.99328L14.1715 2.02448L20.0329 2.94723L20.1605 2.96365L21.5915 3.13113L28.8636 3.99149L35.1886 4.26405L38.1529 4.06866V3.49728L38.7608 3.847V4.57109L40.0188 5.01112L40.3782 4.61542L41.3204 4.92246L41.5908 5.36249L42.6282 6.11111L43.8462 6.72222L42.0192 8.55556L43.114 8.21614V8.94514L44.4551 8.55556L45.2949 7.84506L45.6731 7.33333H46.2821L45.6731 8.21614H46.2821L46.891 8.55556H48.109L49.3269 8.21614L49.7453 8.67915H50.1922L50.5449 9.16667L47.5 9.77778L46.891 11V12.2222V16.5L48.109 15.8889V13.6624L48.2683 11.9285L49.7453 10.0091H50.7476L51.2919 10.5444L51.7628 11L51.2919 12.6526L52.3718 12.4342L52.9808 13.4444L52.3718 14.6667V15.8889H52.9808H53.5897H54.1987L54.6387 15.6526V15.3716V15.0022L55.8278 13.6624L56.9278 13.728L57.8952 12.9826L58.567 13.004L58.7467 12.6526L58.5905 12.3455L57.8717 12.4342L57.7592 11.9285L58.4763 11.2487L59.6889 10.6133L60.6344 10.656L60.4984 10.239L62.0016 9.6249L62.3391 8.94514L63.283 8.1324L66.8754 7.31801L67.0988 6.72856L67.653 6.57586L67.6581 6.57422L67.7941 6.31152L67.8159 5.89447L68.1317 5.78446L68.1082 5.32308L67.8394 4.77304L68.2106 2.96201H70.6845L71.2757 4.77304L71.8148 4.79603L71.8786 5.36085L72.8594 5.4725Z" fill="white"/>
</svg>
